<svg width="42" height="44" viewBox="0 0 42 44" fill="none" xmlns="http://www.w3.org/2000/svg">
<path d="M35.2504 43.3502C35.0171 43.3502 34.8004 43.3169 34.6004 43.2502C34.4004 43.1502 34.2171 43.0002 34.0504 42.8002L21.7504 30.5502C21.5837 30.3502 21.4504 30.1669 21.3504 30.0002C21.2837 29.8002 21.2504 29.5835 21.2504 29.3502C21.2504 29.1169 21.2837 28.9002 21.3504 28.7002C21.4504 28.5002 21.5837 28.3169 21.7504 28.1502L26.0504 23.8502C26.2171 23.6835 26.4004 23.5669 26.6004 23.5002C26.8004 23.4002 27.0171 23.3502 27.2504 23.3502C27.4837 23.3502 27.6837 23.4002 27.8504 23.5002C28.0504 23.5669 28.2504 23.6835 28.4504 23.8502L40.7004 36.1502C40.9004 36.3502 41.0337 36.5502 41.1004 36.7502C41.2004 36.9169 41.2504 37.1169 41.2504 37.3502C41.2504 37.5835 41.2004 37.8002 41.1004 38.0002C41.0004 38.2002 40.8671 38.3835 40.7004 38.5502L36.4504 42.8002C36.2504 43.0002 36.0504 43.1502 35.8504 43.2502C35.6837 43.3169 35.4837 43.3502 35.2504 43.3502ZM35.2504 39.4502L37.3004 37.3502L27.2504 27.2502L25.1504 29.3502L35.2504 39.4502ZM6.05039 43.3002C5.81706 43.3002 5.58372 43.2669 5.35039 43.2002C5.15039 43.1335 4.96706 43.0002 4.80039 42.8002L0.550391 38.6002C0.383724 38.4335 0.250391 38.2502 0.150391 38.0502C0.0837243 37.8169 0.050391 37.6002 0.050391 37.4002C0.050391 37.1669 0.0837243 36.9502 0.150391 36.7502C0.250391 36.5502 0.383724 36.3502 0.550391 36.1502L12.1004 24.6502H16.4504L18.3004 22.8002L9.40039 13.9002H6.50039L0.000390649 7.40019L5.20039 2.15019L11.7004 8.65019V11.6002L20.6004 20.5002L27.1504 13.9502L23.7504 10.5502L26.5504 7.75019H20.9004L19.9004 6.75019L26.6004 0.000192642L27.6004 1.05019V6.70019L30.4004 3.90019L39.1004 12.6002C39.6337 13.1002 40.0504 13.7002 40.3504 14.4002C40.6504 15.0669 40.8004 15.7835 40.8004 16.5502C40.8004 17.2502 40.6671 17.9335 40.4004 18.6002C40.1671 19.2669 39.8337 19.8669 39.4004 20.4002L35.0504 16.0502L32.1504 18.9002L29.5004 16.2502L18.7504 27.0002V31.3002L7.20039 42.8002C7.03372 43.0002 6.85039 43.1335 6.65039 43.2002C6.48372 43.2669 6.28372 43.3002 6.05039 43.3002ZM6.05039 39.4502L16.1504 29.3502V27.2502H14.0504L3.95039 37.3502L6.05039 39.4502ZM6.05039 39.4502L3.95039 37.3502L5.00039 38.3502L6.05039 39.4502ZM35.2504 39.4502L37.3004 37.3502L35.2504 39.4502Z" fill="#D71920"/>
</svg>
