<svg width="236" height="31" viewBox="0 0 236 31" fill="none" xmlns="http://www.w3.org/2000/svg">
<path d="M91.8732 0.0484248C97.8875 -0.0123506 103.951 0.0828303 109.977 0.0489168C113.073 0.181439 116.652 -0.181989 119.689 0.171198C123.021 0.558654 126.961 3.66258 127.728 6.9742C128.212 9.06441 128.254 11.4732 127.389 13.4608C127.06 14.2174 126.602 14.8766 126.198 15.5798C128.193 18.1376 128.556 21.5274 127.565 24.592C126.764 27.0724 124.499 28.9203 122.197 30.0204C119.251 31.094 118.438 30.9355 115.326 30.9354L108.517 30.9309L84.9642 30.9606C84.7969 29.5158 84.8751 24.6755 84.895 22.9494C84.9452 18.5711 84.7838 13.8144 84.9406 9.47536C89.1564 8.5534 91.8098 4.1296 91.8732 0.0484248ZM93.3457 11.3132C95.0591 11.5404 100.295 11.386 102.243 11.3995C106.925 11.4322 111.747 11.4066 116.432 11.3598C117.167 11.3525 118.051 11.2421 118.736 10.9777C120.316 10.2964 120.016 8.82513 118.544 8.34737C117.615 8.04564 116.484 8.04638 115.512 8.03144C108.456 7.92304 101.325 8.184 94.2775 8.03097C93.745 8.08201 93.7144 7.99057 93.4217 8.30794C93.1573 9.264 93.3832 10.2332 93.3457 11.3132ZM93.3352 22.8836L109.1 22.9039C111.691 22.9044 114.287 22.926 116.876 22.8724C117.778 22.8537 118.469 22.6811 119.277 22.2852C119.827 21.7815 120.039 21.1589 119.459 20.5381C118.659 19.6802 117.266 19.7442 116.186 19.6822C111.786 19.6965 107.292 19.6049 102.899 19.6662C99.9328 19.7076 96.2253 19.5421 93.3319 19.7044C93.3374 20.7057 93.3747 21.8972 93.3352 22.8836Z" fill="white"/>
<path d="M6.64442 0.0574922C15.7165 0.263916 24.9132 -0.129841 33.9949 0.106883C35.3074 0.141095 37.5553 1.2179 38.6572 1.94538C43.4217 5.09094 44.0147 10.9556 40.945 15.5159C44.6241 20.4976 42.8297 27.7688 36.8326 29.9993C35.123 31.1073 31.7645 30.9266 29.7733 30.9254L22.7367 30.9185L0.0225577 30.9206C-0.0185853 29.5876 0.00797646 28.1799 0.0138836 26.8403C0.0394741 21.0371 -0.0350201 15.2221 0.031837 9.42015C4.33942 8.01209 6.46046 4.43101 6.64442 0.0574922ZM7.99652 11.4148L23.0392 11.4359C25.1861 11.4359 32.3474 11.6814 33.8519 10.8902C35.4762 9.85628 34.2277 8.34768 32.7993 8.178C29.4313 7.77794 25.9534 8.06724 22.5605 7.97924C17.8942 8.0788 12.6453 7.80407 8.06882 8.01819C7.94127 8.86708 8.0395 10.4458 7.99652 11.4148ZM8.00186 22.9425L23.8388 22.9439C26.637 22.9441 29.5183 23.0149 32.3091 22.8386C33.0084 22.7945 33.4171 22.6736 34.0018 22.2969C35.4021 21.3645 34.256 19.9654 32.7767 19.804C31.033 19.6137 29.467 19.6345 27.7208 19.6331L19.7715 19.6319L12.1882 19.6355C11.0674 19.636 9.11664 19.5839 8.05665 19.675C7.96981 20.7199 8.03605 21.8701 8.00186 22.9425Z" fill="#D71920"/>
<path d="M205.694 0.107104C206.181 0.0307774 208.2 0.0467341 208.788 0.0469153L214.778 0.0541999L235.875 0.0480679C235.862 2.31812 235.751 5.87621 236 8.00844C230.136 7.90209 223.944 8.00032 218.058 7.99945L211.707 7.99908C207.312 7.99939 205.352 7.61031 202.375 11.3072L228.367 11.3091C228.529 13.5444 228.479 17.3492 228.417 19.6397C226.682 19.5059 222.701 19.6231 220.812 19.6238L205.193 19.6296C204.396 19.6217 203.6 19.6029 202.804 19.5731L202.639 19.7678C202.799 21.2851 206.844 22.819 208.334 22.8087C210.839 22.7914 213.359 22.8063 215.863 22.8063L235.889 22.801C235.815 25.4337 235.866 28.2743 235.881 30.9208L215.797 30.9183C210.035 30.922 203.961 31.7559 199.172 28.0172C191.982 22.4047 191.947 10.6538 198.017 4.23377C200.034 2.1003 202.738 0.473512 205.694 0.107104Z" fill="white"/>
<path d="M145.668 0.0676423C147.969 -0.0747758 151.662 0.0510961 154.051 0.0564299C154.156 2.31426 154.036 5.0336 154.082 7.33179C154.109 8.64725 154.148 12.0105 153.957 13.1373C167.838 13.7302 172.411 12.4383 179.721 0.0539517L189.01 0.0522406C185.812 7.28643 181.667 12.4198 175.133 16.8715C177.053 17.8948 180.193 19.8176 181.674 21.3105C184.993 24.0676 187.255 27.1049 189.153 30.9319C186.043 30.9387 182.392 30.8247 179.342 30.9885C177.419 28.8302 176.337 27.5263 174.172 25.6765C169.701 21.8541 165.19 21.3273 159.499 21.4421C157.714 21.4781 155.797 21.3671 153.975 21.5227C154.119 22.4645 154.085 24.3891 154.082 25.3992C154.079 27.196 154.111 29.1299 154.022 30.9163C151.269 30.9194 148.435 30.9563 145.688 30.8985C145.563 27.3667 145.654 23.3416 145.654 19.7799L145.668 0.0676423Z" fill="white"/>
<path d="M57.9509 0.108951C64.0733 -0.100373 71.1506 0.06324 77.3363 0.0641884L84.9043 0.0623134C86.0227 0.0614728 87.9569 0.0051631 89.0273 0.102375C89.5087 1.16731 87.9163 4.06877 87.1769 5.01932C84.5976 8.33466 81.1107 7.99156 77.3931 7.99206L66.1658 7.98501C63.3433 7.98166 60.1245 7.58988 57.6336 9.06393C56.1371 9.94947 54.5724 11.5591 54.5267 13.3855C54.5166 13.7845 54.0338 13.86 54.4253 14.4873C55.0381 14.8446 60.0225 14.6769 61.0379 14.6772L74.8343 14.6808L81.4319 14.6774C81.3093 19.4985 77.9599 22.9262 73.0416 22.999C66.8027 23.0915 60.5325 22.8964 54.2957 23.0284L54.295 30.936C51.6203 30.872 48.6898 30.9267 45.9972 30.9278L45.9882 19.8849C45.9832 17.4692 45.8198 14.5711 46.2323 12.2324C47.3549 5.86794 51.8999 1.69817 57.9509 0.108951Z" fill="#D71920"/>
<path d="M132.028 0.052608L140.211 0.0424805C140.351 10.2249 140.217 20.724 140.217 30.9326C137.54 30.8835 134.706 30.9251 132.018 30.9267C132.205 20.8411 132.031 10.1845 132.028 0.052608Z" fill="white"/>
</svg>
