<svg width="65" height="65" viewBox="0 0 65 65" fill="none" xmlns="http://www.w3.org/2000/svg">
<path d="M36.2492 12.3936V36.7094L44.302 52.808C44.5751 53.2918 44.966 53.6987 45.4386 53.9908C45.9111 54.2828 46.4499 54.4506 47.0048 54.4785H54.0247C55.0583 54.4785 55.5302 53.7407 55.0583 52.808L47.0555 36.7094H61.5036C62 36.7092 62.476 36.5119 62.8269 36.1609C63.1779 35.8098 63.375 35.3338 63.375 34.8374V12.3929C63.3747 11.8967 63.1773 11.4208 62.8262 11.0701C62.4752 10.7193 61.9993 10.5222 61.503 10.5222H38.1206C37.6242 10.5222 37.1481 10.7194 36.7971 11.0703C36.446 11.4212 36.2487 11.8972 36.2486 12.3936H36.2492ZM1.625 12.3936V36.7094L9.672 52.808C9.94699 53.2915 10.3393 53.698 10.8128 53.9899C11.2863 54.2819 11.8257 54.4499 12.3812 54.4785H19.3941C20.4341 54.4785 20.9001 53.7407 20.434 52.808L12.4248 36.7094H26.8795C27.1253 36.7094 27.3687 36.661 27.5958 36.5669C27.823 36.4728 28.0293 36.335 28.2032 36.1611C28.377 35.9873 28.5149 35.7809 28.609 35.5538C28.703 35.3267 28.7515 35.0833 28.7515 34.8374V12.3929C28.7511 11.8967 28.5537 11.4208 28.2027 11.0701C27.8517 10.7193 27.3757 10.5222 26.8795 10.5222H3.497C3.00074 10.5224 2.52486 10.7196 2.17395 11.0705C1.82304 11.4214 1.62518 11.8973 1.625 12.3936Z" fill="#D71920"/>
</svg>
